<svg width="15" height="14" viewBox="0 0 15 14" fill="none" xmlns="http://www.w3.org/2000/svg">
<path d="M10.6142 0.742188C9.92756 0.742188 9.25335 0.924941 8.66075 1.27168C8.06815 1.61842 7.57852 2.11664 7.24215 2.71519C6.90586 2.11679 6.41639 1.61866 5.82398 1.27193C5.23157 0.925203 4.55757 0.742365 3.87115 0.742188C2.81961 0.799023 1.83046 1.25907 1.10947 2.02662C0.388475 2.79418 -0.00884847 3.81015 0.000149559 4.86319C0.000149559 10.2322 7.24215 13.9782 7.24215 13.9782C7.24215 13.9782 14.4841 10.2322 14.4841 4.86319C14.4932 3.81031 14.096 2.79448 13.3752 2.02696C12.6544 1.25943 11.6655 0.799272 10.6142 0.742188Z" fill="#FF6243"/>
<path d="M1.00015 4.86319C0.998784 3.89191 1.33838 2.95096 1.95973 2.20443C2.58108 1.4579 3.44476 0.953145 4.40015 0.778189C4.22485 0.754056 4.0481 0.742028 3.87115 0.742189C2.81961 0.799025 1.83046 1.25907 1.10947 2.02663C0.388475 2.79418 -0.00884847 3.81015 0.000149559 4.86319C0.000149559 10.2322 7.24215 13.9782 7.24215 13.9782C7.24215 13.9782 7.42915 13.8782 7.74215 13.6972C6.10515 12.7352 1.00015 9.37219 1.00015 4.86319Z" fill="#FF5023"/>
</svg>
